<?xml version="1.0" encoding="UTF-8"?>
<svg
   version="1.1"
   width="200"
   height="200"
   viewBox="0 0 200 200"
   xmlns="http://www.w3.org/2000/svg"
>
   <g>
      <path
         style="fill:#000000;stroke-width:1.74456"
         d="m 4.8015085,195.39985 c -2.0553434,-1.9435 -1.3053441,-16.74789 0.9568264,-18.88698 1.1840735,-1.11965 5.4628841,-2.03572 9.5084691,-2.03572 4.045584,0 8.324395,0.91607 9.508469,2.03572 2.78853,2.63681 2.78853,15.34542 0,17.98222 -2.262171,2.13909 -17.9184211,2.84829 -19.9737645,0.90476 z M 23.340032,186.3522 v -8.48218 H 15.266804 7.1935755 v 8.48218 8.48218 h 8.0732285 8.073228 z m 7.499577,2.12055 -0.323374,-8.90629 6.72769,0.27149 c 6.488785,0.26185 6.523975,0.29556 0.990967,0.94908 -5.418738,0.64003 -5.773727,1.11864 -6.404316,8.63479 l -0.667593,7.95722 z m 21.959438,5.77321 c -0.553859,-1.3648 -0.748304,-5.03518 -0.432099,-8.15637 0.558652,-5.51433 0.803373,-5.67492 8.648148,-5.67492 h 8.073228 v 7.63397 7.63396 l -7.641129,0.5224 c -5.434323,0.37154 -7.931963,-0.19424 -8.648148,-1.95904 z m 15.058903,-6.73033 0.563676,-6.47053 -6.842854,0.53301 c -5.591275,0.43551 -6.950837,1.2537 -7.433241,4.47336 -1.01593,6.78049 0.939924,9.04727 7.305744,8.46715 5.357094,-0.48818 5.889873,-1.07055 6.406675,-7.00299 z m 6.038875,0.86417 -0.323374,-8.99924 8.52174,0.51706 8.521737,0.51705 0.237317,8.48219 0.237317,8.48218 -1.134342,-7.63397 c -1.091967,-7.34882 -1.381796,-7.65342 -7.759558,-8.1547 l -6.625217,-0.52074 -0.676122,8.15471 -0.676124,8.1547 z m 31.452115,7.09626 c -0.70216,-0.66394 -1.26427,-2.03416 -1.24916,-3.04497 0.0144,-1.01657 0.69591,-0.84106 1.52334,0.39279 0.96667,1.44145 4.28915,2.04163 9.3913,1.69644 6.5111,-0.4405 7.89542,-1.12905 7.89542,-3.92703 0,-2.90202 -1.37803,-3.46757 -9.52517,-3.90913 l -9.52515,-0.51624 0.5549,-5.42129 c 0.49101,-4.79699 1.2549,-5.48449 6.63382,-5.97037 6.82077,-0.61611 14.5514,0.81899 14.55512,2.70197 0.001,0.682 -4.43893,0.9785 -9.86728,0.65889 -8.93945,-0.52633 -9.86972,-0.25487 -9.86972,2.88011 0,2.97937 1.31122,3.53261 9.41877,3.97399 9.14876,0.49807 9.41876,0.65866 9.41876,5.60207 0,4.91519 -0.30926,5.10643 -9.03916,5.58962 -4.97155,0.27518 -9.61366,-0.0429 -10.31579,-0.70685 z m 25.03612,-0.0762 c -0.65783,-0.62202 -1.10239,-5.77494 -0.98793,-11.45095 0.11446,-5.67598 0.56776,-9.03097 1.00732,-7.45553 0.43958,1.57543 2.56607,3.18912 4.72553,3.58595 l 3.92632,0.72153 -4.03662,0.23102 c -3.37814,0.19334 -4.03661,1.20849 -4.03661,6.2232 0,4.62859 0.91859,6.34135 4.03661,7.52644 3.87587,1.47314 3.88778,1.53852 0.29902,1.64176 -2.0557,0.0592 -4.27584,-0.40139 -4.93364,-1.02342 z m 12.11651,-1.1539 c -0.55386,-1.3648 -0.7483,-5.03518 -0.43209,-8.15636 0.55865,-5.51434 0.80337,-5.67492 8.64815,-5.67492 h 8.07322 v 7.63396 7.63396 l -7.64113,0.5224 c -5.43432,0.37154 -7.93196,-0.19424 -8.64815,-1.95904 z m 15.05205,-6.62143 0.5568,-6.36163 h -7.28449 c -7.05975,-4e-5 -7.28451,0.17444 -7.28451,5.65474 0,7.07589 1.19335,8.20429 8.00875,7.573 4.88473,-0.45246 5.50407,-1.16079 6.00345,-6.86614 z m 6.04573,0.84822 -0.32338,-8.90632 6.72769,0.27149 c 6.48878,0.26185 6.52398,0.29556 0.99097,0.94908 -5.41874,0.64003 -5.77372,1.11864 -6.40432,8.63479 l -0.66758,7.95722 -0.32338,-8.90629 z m 17.01912,6.92711 c -0.65783,-0.62205 -1.19604,-4.48087 -1.19604,-8.57516 v -7.44417 l 8.52174,0.51706 c 7.27216,0.44124 8.60581,1.07674 9.09503,4.33404 0.52277,3.48056 -0.14927,3.81698 -7.62472,3.81698 -6.92109,0 -8.198,0.51327 -8.198,3.29532 0,2.64405 1.50695,3.42368 7.62471,3.94471 l 7.62472,0.6494 -7.3257,0.29636 c -4.02915,0.16303 -7.86394,-0.21254 -8.52174,-0.83458 z m 13.15636,-11.59234 c 0,-1.77722 -1.89373,-2.54466 -6.27917,-2.54466 -4.38545,0 -6.27918,0.76744 -6.27918,2.54466 0,1.77722 1.89373,2.54465 6.27918,2.54465 4.38544,0 6.27917,-0.76743 6.27917,-2.54465 z m -146.599016,3.39287 c 0.01346,-4.6652 0.361884,-6.37234 0.774253,-3.79366 0.412372,2.57869 0.401351,6.39567 -0.02449,8.48218 -0.42584,2.08652 -0.763233,-0.0234 -0.749765,-4.68852 z m -0.513123,-11.87505 c 0,-0.46652 0.403661,-0.84822 0.897025,-0.84822 0.493364,0 0.897025,0.3817 0.897025,0.84822 0,0.46652 -0.403661,0.84821 -0.897025,0.84821 -0.493364,0 -0.897025,-0.38169 -0.897025,-0.84821 z M 78.955603,158.94872 C 30.747084,151.78679 2.571012,99.993706 24.171815,58.245486 28.621977,49.644587 41.988719,33.672945 44.736689,33.672945 c 0.746439,0 0.813915,3.384822 0.149947,7.521828 -1.136289,7.079915 -0.935127,7.586012 3.424009,8.614351 7.003909,1.652249 10.846347,5.789473 12.063916,12.989435 0.60452,3.574749 1.741322,6.499544 2.526231,6.499544 0.78491,0 3.797257,1.885836 6.694107,4.190748 3.633597,2.891112 6.875909,3.998208 10.455017,3.569892 6.650492,-0.795875 20.799024,-9.504292 19.728278,-12.142764 -0.449535,-1.107742 1.469396,-4.085702 4.264276,-6.617688 l 5.08163,-4.603614 -3.47846,-5.574782 -3.47847,-5.574783 5.57535,-4.436084 c 3.66295,-2.914477 7.52807,-4.369167 11.26836,-4.240995 5.62855,0.19288 5.61691,0.209054 -1.02881,1.428484 -3.697,0.678366 -8.34297,2.620685 -10.32437,4.316265 -3.56367,3.04961 -3.56551,3.142205 -0.17097,8.582383 l 3.4315,5.499512 -5.18416,4.696507 c -4.04582,3.665235 -4.7365,5.206585 -3.14539,7.01944 1.68153,1.915862 2.92197,1.522843 7.07854,-2.242727 3.89646,-3.529939 5.59241,-4.13193 7.47608,-2.653691 1.90472,1.49477 3.97192,0.424967 9.47366,-4.90278 3.87054,-3.748111 11.48208,-9.193783 16.91458,-12.101491 5.43247,-2.907709 8.82805,-5.623384 7.54572,-6.034836 -1.83172,-0.587734 -1.71371,-1.639668 0.55055,-4.907364 2.61623,-3.775717 20.53433,-20.94846 21.85762,-20.94846 0.30517,0 0.55485,3.091495 0.55485,6.86999 0,8.894872 -3.04363,14.131243 -14.21165,24.450306 -5.39881,4.988411 -9.111,9.913183 -9.111,12.087107 0,7.19468 -2.19659,13.844859 -6.10329,18.477758 -3.92327,4.652522 -4.0281,4.672465 -9.77903,1.860354 -5.67527,-2.775111 -5.94227,-2.739913 -11.24956,1.482891 -2.98998,2.379011 -6.07372,4.325474 -6.85274,4.325474 -0.77903,0 -4.22412,3.407745 -7.65577,7.572767 l -6.23938,7.57276 2.7928,10.136308 c 1.85207,6.72196 3.84257,10.39588 5.90928,10.90693 1.71405,0.42385 4.68256,3.20575 6.59667,6.18199 2.05738,3.19902 3.97116,4.66018 4.68111,3.57397 0.66049,-1.01055 4.42109,-1.83738 8.3569,-1.83738 5.39537,0 8.21576,1.08131 11.46346,4.39496 2.6905,2.74514 5.18384,3.90932 6.64203,3.10127 1.284,-0.71154 0.7199,0.54269 -1.25356,2.78716 -15.79283,17.9617 -43.17442,27.23206 -69.070947,23.38483 z M 44.86864,117.64654 c 0,-0.46653 -0.403661,-0.84823 -0.897025,-0.84823 -0.493364,0 -0.897026,0.3817 -0.897026,0.84823 0,0.46652 0.403662,0.84822 0.897026,0.84822 0.493364,0 0.897025,-0.3817 0.897025,-0.84822 z m 17.892333,-9.35857 c -1.17869,-0.68882 -3.826947,-0.83604 -5.885016,-0.32712 -3.618453,0.89477 -3.6267,0.96413 -0.249913,2.10197 4.404999,1.48429 9.292356,0.0704 6.134929,-1.77485 z m 32.341082,-4.21293 c 0,-0.46652 -0.403661,-0.84822 -0.897025,-0.84822 -0.493364,0 -0.897026,0.3817 -0.897026,0.84822 0,0.46652 0.403662,0.84822 0.897026,0.84822 0.493364,0 0.897025,-0.3817 0.897025,-0.84822 z m -47.63704,-9.475289 c -0.577641,-0.883789 -1.814964,-1.159987 -2.749605,-0.613777 -0.934643,0.546212 -1.226734,1.716206 -0.649094,2.599999 0.577641,0.883792 1.814963,1.159989 2.749605,0.61377 0.934643,-0.546201 1.226734,-1.716199 0.649094,-2.599992 z M 98.995342,89.500897 C 104.6421,86.643269 113.75164,77.885301 112.40334,76.61036 c -0.66279,-0.626722 0.94762,-3.264161 3.57868,-5.860975 4.04405,-3.991407 4.42241,-5.13318 2.44693,-7.383982 -2.10552,-2.398961 -2.70974,-2.333647 -6.10417,0.659857 -2.07204,1.827298 -4.95911,3.570369 -6.4157,3.873491 -6.609772,1.375517 -15.730313,15.230052 -14.601711,22.180694 0.293973,1.810499 3.434082,1.574196 7.687973,-0.578548 z M 40.682523,68.167145 c -0.65782,-0.622026 -1.196035,-0.113102 -1.196035,1.130958 0,1.244052 0.538215,1.752983 1.196035,1.130958 0.657817,-0.622028 0.657817,-1.639889 0,-2.261916 z m 92.094597,28.173811 c 0,-0.988106 0.80732,-1.324747 1.79405,-0.748094 0.98673,0.576652 1.79405,1.385106 1.79405,1.79656 0,0.411453 -0.80732,0.748094 -1.79405,0.748094 -0.98673,0 -1.79405,-0.808454 -1.79405,-1.79656 z m 30.49885,-21.105327 c 0,-0.46652 0.40367,-0.848218 0.89703,-0.848218 0.49336,0 0.89703,0.381698 0.89703,0.848218 0,0.46652 -0.40367,0.848218 -0.89703,0.848218 -0.49336,0 -0.89703,-0.381698 -0.89703,-0.848218 z m 21.52861,-5.089308 c 0,-0.46652 0.40366,-0.848218 0.89702,-0.848218 0.49337,0 0.89703,0.381698 0.89703,0.848218 0,0.46652 -0.40366,0.848218 -0.89703,0.848218 -0.49336,0 -0.89702,-0.381698 -0.89702,-0.848218 z M 78.955603,64.208794 c 0,-0.93304 0.854969,-1.696436 1.89993,-1.696436 1.044961,0 1.400978,0.763396 0.791146,1.696436 -0.609832,0.93304 -1.4648,1.696436 -1.89993,1.696436 -0.435131,0 -0.791146,-0.763396 -0.791146,-1.696436 z M 140.53578,41.038886 c 0.64925,-0.613932 0.17833,-2.331574 -1.04654,-3.816982 -1.96725,-2.385747 -1.86312,-2.430998 0.89284,-0.387978 2.80665,2.080596 2.84526,5.321199 0.0633,5.321199 -0.59959,0 -0.55895,-0.502308 0.0902,-1.116239 z M 79.163714,35.057953 C 79.036624,33.31376 77.03491,31.926742 74.021963,31.495152 l -4.933639,-0.706719 4.808861,-0.25418 c 3.449023,-0.182304 5.028717,-1.333538 5.586348,-4.071162 0.773505,-3.797438 0.778736,-3.798015 1.021803,-0.112677 0.17553,2.661245 1.633528,3.903298 5.177953,4.411019 l 4.933639,0.706718 -4.802081,0.254181 c -2.911368,0.154104 -5.12514,1.423077 -5.622559,3.222943 -0.734292,2.656967 -0.842317,2.668801 -1.028574,0.112678 z m 49.128276,-2.612349 c 1.97346,-0.458571 8.43204,-5.21166 14.35241,-10.562423 7.76165,-7.014898 12.69209,-10.070431 17.6753,-10.953891 3.80106,-0.673878 7.28659,-0.8701 7.74562,-0.43605 0.45902,0.43405 -2.62359,1.341647 -6.85022,2.016881 -6.04666,0.965992 -10.02486,3.35246 -18.66227,11.195261 -6.1978,5.627604 -12.47342,9.881879 -14.41321,9.770775 -3.22918,-0.18496 -3.22001,-0.246917 0.15232,-1.030553 z M 105.86636,19.253238 c 0,-0.46652 0.40366,-0.848218 0.89702,-0.848218 0.49337,0 0.89703,0.381698 0.89703,0.848218 0,0.46652 -0.40366,0.848218 -0.89703,0.848218 -0.49336,0 -0.89702,-0.381698 -0.89702,-0.848218 z M 134.57117,3.9853126 c 0,-0.4665199 0.40366,-0.848218 0.89703,-0.848218 0.49336,0 0.89702,0.3816981 0.89702,0.848218 0,0.46652 -0.40366,0.8482181 -0.89702,0.8482181 -0.49337,0 -0.89703,-0.3816981 -0.89703,-0.8482181 z"
      />
   </g>
</svg>
